# xmcd
#
# Track frame offsets:
#	182
#	16152
#	36785
#	57162
#	71727
#	103705
#	125487
#	144462
#	161067
#	175300
#
# Disc length: 2659 seconds
#
# Revision: 0
# Processed by: cddbd v1.5.2PL0 Copyright (c) Steve Scherf et al.
# Submitted via: EasyCDDAExtractor 16.0.9.1
#
DISCID=880a610a
DTITLE=Barry White - N-031 Barry White's Greatest Hits
DYEAR=1988
DGENRE=
TTITLE0=What Am I Gonna Do With You
TTITLE1=You're the First, the Last, My Everything
TTITLE2=Can't Get Enough of Your Love, Babe
TTITLE3=Honey Please, Can't Ya See
TTITLE4=Love Serenade
TTITLE5=Never, Never Gonna Give You Up
TTITLE6=I'm Gonna Love You Just a Little More, Baby
TTITLE7=I've Found Someone
TTITLE8=I've Got So Much to Give
TTITLE9=Standing in the Shadows of Love
EXTD=
EXTT0=
EXTT1=
EXTT2=
EXTT3=
EXTT4=
EXTT5=
EXTT6=
EXTT7=
EXTT8=
EXTT9=
PLAYORDER=
